<svg id="Layer_1" data-name="Layer 1" xmlns="http://www.w3.org/2000/svg" viewBox="0 0 1166 410.47"><defs><style>.cls-1,.cls-2,.cls-3{fill:#fff;}.cls-2,.cls-3{fill-rule:evenodd;}.cls-3{stroke:#fff;stroke-miterlimit:10;}</style></defs><title>ANTS</title><path class="cls-1" d="M125.81,300.2H15.64L102,51.52H259L345.33,300.2h-110l-14.34-42H140.15ZM160.2,199.49h40.74l-20.38-61.76Z"/><path class="cls-1" d="M380.37,344.57v10.7H393v5.16H380.37v20.08c0,4.62,1.7,7.23,6.59,7.23a25.21,25.21,0,0,0,5.09-.46l.4,5.08a27.35,27.35,0,0,1-7.79.92c-4.09,0-7.38-1-9.48-2.84-2.49-2-3.39-5.31-3.39-9.7V360.43h-7.48v-5.16h7.48v-8.93Z"/><path class="cls-1" d="M444.64,369.2v5H420v-5Z"/><path class="cls-1" d="M475.67,385.59a28.11,28.11,0,0,0,11.58,2.69c6.39,0,9.38-2.46,9.38-5.54,0-3.23-2.5-5-9-6.85-8.68-2.38-12.78-6.08-12.78-10.54,0-6,6.29-10.93,16.67-10.93a29.93,29.93,0,0,1,11.88,2.31l-2.2,4.93a22.92,22.92,0,0,0-9.88-2.16c-5.19,0-8.08,2.31-8.08,5.08,0,3.08,2.89,4.46,9.18,6.31,8.38,2.46,12.67,5.7,12.67,11.24,0,6.54-6.58,11.15-18.06,11.15a34.2,34.2,0,0,1-13.57-2.54Z"/><path class="cls-1" d="M538.34,337.88h8.78v23.24h.2a15,15,0,0,1,6.29-4.77,22.16,22.16,0,0,1,9-1.93c6.49,0,16.87,3.08,16.87,15.93v22.16h-8.79V371.12c0-6-2.89-11.08-11.17-11.08-5.69,0-10.18,3.08-11.78,6.77a6.51,6.51,0,0,0-.6,3.23v22.47h-8.78Z"/><path class="cls-1" d="M625.46,344.8c.1,2.31-2.1,4.16-5.59,4.16-3.09,0-5.29-1.85-5.29-4.16s2.3-4.23,5.49-4.23S625.46,342.42,625.46,344.8Zm-9.78,47.71V355.27h8.78v37.24Z"/><path class="cls-1" d="M661,366.89c0-4.39-.1-8.16-.4-11.62h7.68l.3,7.31h.4c2.19-5,7.48-8.16,13.37-8.16a12.52,12.52,0,0,1,2.5.23V361a17.44,17.44,0,0,0-3-.23c-6.19,0-10.58,3.62-11.77,8.7a14.79,14.79,0,0,0-.4,3.15v19.85H661Z"/><path class="cls-1" d="M728.54,344.57v10.7h12.58v5.16H728.54v20.08c0,4.62,1.7,7.23,6.59,7.23a25.21,25.21,0,0,0,5.09-.46l.4,5.08a27.35,27.35,0,0,1-7.79.92c-4.09,0-7.38-1-9.48-2.84-2.49-2-3.39-5.31-3.39-9.7V360.43h-7.48v-5.16H720v-8.93Z"/><path class="cls-1" d="M771.75,385.59a28.11,28.11,0,0,0,11.58,2.69c6.38,0,9.38-2.46,9.38-5.54,0-3.23-2.5-5-9-6.85-8.68-2.38-12.78-6.08-12.78-10.54,0-6,6.29-10.93,16.67-10.93a29.84,29.84,0,0,1,11.87,2.31l-2.19,4.93a22.92,22.92,0,0,0-9.88-2.16c-5.19,0-8.08,2.31-8.08,5.08,0,3.08,2.89,4.46,9.18,6.31,8.38,2.46,12.67,5.7,12.67,11.24,0,6.54-6.59,11.15-18.06,11.15a34.2,34.2,0,0,1-13.57-2.54Z"/><path class="cls-1" d="M606.93,302.15H523.48L470,223.77V300.2H360V51.52h78.71l58,84.09V51.52H606.93Z"/><path class="cls-1" d="M636.91,161.68V51.52h221V161.68H802.47V300.2H692.31V161.68Z"/><path class="cls-1" d="M1107.16,64.23l-27.37,78.39q-26.89-36.33-61.76-36.34-19.41,0-19.4,14.67c0,3,2,6.13,6.11,9.27s14.76,8.11,32,14.85q28.51,11.24,43.91,20.44t23,23.56q7.66,14.34,7.67,33.4,0,39.91-30.31,60.87t-89.15,20.93q-66,0-113.75-18.74l26.9-83.11a92.26,92.26,0,0,0,29.09,29q17.36,10.75,33.33,10.76a20.83,20.83,0,0,0,13.1-4.07c3.55-2.71,5.3-6,5.3-10,0-3.69-1.69-7.23-5.13-10.58s-12.47-8.05-27.13-14A254.74,254.74,0,0,1,920.74,188a70.42,70.42,0,0,1-22.66-21.6q-9.62-14-9.61-35.35,0-41.39,30.15-62.42t89-21Q1061.37,47.61,1107.16,64.23Z"/><path class="cls-2" d="M101.31,74.66A102.89,102.89,0,0,1,82,94.26c.08,2.92-1,4.67-1.31,7.25,4.05-2.85,15.11-4,16.66,2.55,1.77,7.48-7.88,13.73-16.23,11.08,6.32,4.09,16.19,1.28,26.75-.42,6.28-1,11.58-4.54,15.34-5.54-1.41,2-4.76,3.57-7.89,4.69-7.18,2.55-18.08,4.41-25,5.53-2.55.42-5.25,0-6.57-1.27-1.14.32-2.91,1.31-4,.42,1.64,3.23,5.44,4.37,5.7,9,8.3,1.45,15,4.47,23.67,5.54-9.55.42-16.8-2.44-25-4.68-2.76-2.42-3-10.44-8.77-7.25.32,5.42-2.86,7.44-5.69,9.8A13.89,13.89,0,0,1,70.62,142c-1.83-.57.1-2.76.44-3.83A73,73,0,0,0,68,130.49c1.29-3,4.72-3.94,5.7-7.25-1.92.27-4.13,3.93-8.33,3.41,1.93,3.21-1.67,9.66-6.58,10.23.56-.59,2.15-1.21.44-1.71-2.57,1.78.45,3.69.88,6,1.06,5.62-2.49,13.49,1.31,18.33-5.19-3.05-1.95-9.65-2.19-14.92s-3.61-8.53-3.95-12.79c-8,1.35-11.64,6.86-18,9.81,4.93-4.44,9.35-9.39,17.54-10.66.22-2.43.33-7.65,3.51-8.52,2-.44,2.49.7,3.5,1.28.67-1.62,1-3.58,2.19-4.69,1.08-.8,3.15-.64,4.39-1.28-3.73-1.63-6.46,1.38-10.52.85,1.87-2.54,9.29-4.22,12.27-1.7,1.41-.34,1.92-1.55,3.07-2.13-4.4-2.4-10.35-3.29-12.27-8.1.56-3.39-1.19-4.53-1.76-6.82,2.17,1.59,2.33,5.13,3.51,7.67,3.28,2.78,8.5,3.67,11.84,6.4,2-.06,1-3.05,3.07-3C76.33,90,92.35,86,100.87,74.66Z"/><path class="cls-2" d="M347.54,32.68c7-4.09,14.95-3.59,21.88-8.09-1.29-4-3.53-8.52-9.5-9.46,5.2-.19,9.42,3.72,9.84,7.95,2.83-1.56,9.94-5.24,10.34,1,1.47-.59,2.8-1.87,4.33-2.2,4.08,1.4,3.38,6.3,7.35,6.65.62-3.25-.86-7.25,1.77-10.25,2.85,2-.7,6.85.92,9.43a15.47,15.47,0,0,0-.65,4.69c1.47.49,2.15-3,3.74-1.95.78,1-.65,3-.43,4.25,4.52-3.34,7.78-13,12.65-14.62,2.29,4.26,4.26,7.5,5.78,13.1,1.75,6.46-1.21,15.85,7.25,18.91-.76,1-2.18-1.41-2.81.2-5.35-3.67-3.54-11.62-5.7-15.85-.59-1.16-.5-3.46-1-5-1.14-3.55-2.77-6.12-3.28-10.11a63,63,0,0,0-6.13,9.09c8.09,3.2,10.54,11.4,4.35,21.86-3.14,2-8.44-1.05-10-4.15-.22,6-2.09,15.6,4,20-3.35,1.46-4.46-4.33-4.77-6.42-1.08-7.23-.06-17.5-3.08-23.43-2.06.37-.2,3.67-1.48,3.7-2.23.63-2.44-2-2.86-3.18a40.59,40.59,0,0,1-2.9,3c-2.5-.35-2.27-1.93-4.15-3.3-2.06,3.12-1.4,9.18-2.69,12-.19,2.24.16,12.54-4.67,13.2,6.86-7.88,1.87-16,5.84-24.89-2.18-1.67-4.48-3.27-6.4-5-3.79,6.48-6.61,17.6-13.19,18.24.17-1.34,3.37-1.1,4.55-2.64,1.86-5.45,4.69-14.48,10.15-17.61q2.11,1.13,4.25,2.23c.34-2.41-2.61-3.39-3-5.48-3.71,5.8-9.2,2.64-12.94,8.3-1-.57-.8-1.69-.86-2.68,2.89-1.47,3.06-4.29,3.33-7.2-2.17-.27-3.9,1.64-5.72,3.15-5.38.07-10.57,1.1-15.22,4.87C346.78,34.14,347.16,33.41,347.54,32.68Z"/><path class="cls-2" d="M890.16,78.75C893,71.58,899.54,67,902,59.56c-3.61-1.91-8.31-3.6-13.6-.51,3.95-3.38,9.8-3.35,12.89-.72,1.2-2.84,4.38-9.79,8.73-5.81.77-1.33,1-3,2-4.21,4.1-1.59,6.75,2.19,10.09-.05-1.63-2.61-5.39-4.41-5.29-8.1,3.57-.39,3.92,5.11,6.87,5.85a13.35,13.35,0,0,0,2.54,3.61c1.48-.59-.27-3.4,1.66-3.67,1.28.21,1.44,2.44,2.43,3.17,1.38-5.1-2.39-13.75.4-17.87,4.57,1.47,8.22,2.45,13.06,5.32,5.58,3.31,9.38,11.56,18,8.36,0,1.13-2.63.4-2.08,1.89-6.58.84-10.34-5.71-14.78-7.24-1.22-.43-2.65-2-4-2.79-3.2-1.71-6.16-2.45-9.16-4.84a52,52,0,0,0,1.11,10c8.43-2.87,15.69,1.18,17.64,12.19-1.15,3.32-7.3,4.56-10.56,3.44,3.72,4.2,8.51,11.93,16.12,11.14-1.67,3.09-6.31-.17-7.91-1.4-5.55-4.25-11.43-11.9-17.66-14.05-1.38,1.54,2.22,2.63,1.24,3.45-1.33,1.82-3.19.19-4.3-.39a33.18,33.18,0,0,1-.36,3.83c-2.19,1.32-3,.1-5.4.34.42,3.42,4.88,7.14,5.71,9.87,1.32,1.65,8.29,8.46,4.94,11.93.24-9.66-9-12.11-11.63-20.63-2.79.23-5.64.58-8.3.57,1.25,6.78,6.28,16.13,1.53,20.68-.74-1,1.93-2.86,1.85-4.65-2.08-4.88-5.74-12.8-3.51-18.34L917,58.81c-1.3-1.85-4.25-.68-5.92-1.87.87,6.28-5.49,7.56-4.74,13.76-1.18.24-1.72-.66-2.42-1.3,1.32-2.8-.39-4.83-2.08-7-1.87,1.17-2,3.56-2.43,5.72-4.17,3.41-7.56,7.36-8.76,12.83C890.51,80.22,890.33,79.49,890.16,78.75Z"/><path class="cls-2" d="M919.38,191.63c.58-.12.62.39,1.08.41.66,3.38,2.86,5,4,7.86,4.78,2.52,5.6,9.57,8.29,14.48,2.69-1.33,8-3,9.73.41,1.14-.62,1.76-1.84,3.24-2.06,4.79.85,3.46,8.72,8.66,9.1,1.31-3.87.95-9.66,1.8-14.07a6.65,6.65,0,0,1,5-1.24c1.3-.44.05-3.8,1.8-3.72a14.81,14.81,0,0,1-.72,4.14c-1.35.37-2.54.93-4,1.24a7.45,7.45,0,0,0-.72,4.13,27.13,27.13,0,0,1,18,2.9,6.16,6.16,0,0,0,3.24-1.65c1.13,1.45-2.12,1.4-2.16,2.89,4.31,8.54-1.94,15.93-10.81,14.48,4.71,5.21,11.4,8.15,18.74,10.34-1.44,1.48-4.12,0-6.13-.83-3.79-1.54-6.48-4.48-10.81-5.38a28.35,28.35,0,0,0-7.21-5.79c-1.33.87,1.1,1.75,0,2.48-2.74,1.14-4.07-1.6-5.77-2.89.27,2.51-.36,4-1.44,5-.35,6.71,1.2,11.1-.36,17A171.67,171.67,0,0,0,950.73,228c-.67.61-.42,2.27-1.8,2.07-2.38.11-3-1.78-4.32-2.89-2.59,4.47-3.5,10.88-7.57,13.64-1.84-2.09,2.59-2.7,3.24-4.54-.16-4.46,1.56-6.76,2.52-9.93-.25-1.79-1.39-2.54-1.8-4.14-1.16,6.23-10.62,3.12-12.61-.41-4.18,7.06-14.76,6.78-19.1,13.65,1.66-6.6,8.3-6.31,13-9.1,3.18-1.9,4.65-5.48,7.57-7-.78-2.72.51-3.62,2.16-4.55-1.53-3.34-3.48-6.2-4.32-10.34C924.73,200.38,920.7,197.56,919.38,191.63Zm40.36,26.89a37.9,37.9,0,0,1,5.41-5h-6.49C958.48,215.83,959.82,216.35,959.74,218.52Zm-18,0c1.61-.63,2.87-1.67,5.41-1.24a3.82,3.82,0,0,0-1.8-2.9C944.75,216.48,942,216.08,941.72,218.52Zm14.42,3.72c1.13-.47.87.65,1.44.83,1.14-2,.12-3.21-.72-5C957,219.87,955.76,220.15,956.14,222.24Zm-25.59,0c.1-1.08-.13-1.78-1.08-1.65C929.37,221.67,929.6,222.37,930.55,222.24Z"/><path class="cls-2" d="M207,290.24c-1.25-.22-4.66.15-5.87-1.18-1.81,4.44-6.4,10.17-12.16,8.28-2.48,1.35-4.69,3-4.61,6.72-1.24-3,1.38-5.81,3.78-6.72-.75-1.6-.42-4.24,0-5.92-6.51-3.82-15.57-2.89-25.15-3.55,7.73-1.62,18.84-.41,25.15,2.37a14.61,14.61,0,0,0,2.51-4.34c0-1.18-2-.51-2.51-1.19.63-1.19,1.84.33,2.93,0,2-.5,1.36-3.46,2.52-4.73,5.11-.48,6.79,2.28,12.15,1.57.39-1.56-2.32-3.6-2.93-5.52-1,1.63-3.23-.41-2.94-2.37,1.16,1.08.4-.58,1.26-.79,3.25,1.81,4.32,5.67,6.29,8.68,1.9-.24,3.11-1.35,4.61,0,2.88-4.14-.23-10.44,2.93-15.78,3.9-.57,5.4,3.53,9.22,5.13,3.21,1.34,7.13,1,9.64,2.76,3.1,2.13,4.1,6.17,3.77,10.66-1.5,1.48-4,2.06-6.28,2.76,4.64,1.42,8.41,3.65,13.83,4.34,3,3.39,9.86,4.3,15.5,4.74-10,.76-18.42-4.83-27.66-7.5-7.56,1.87-14.52.42-20.54-2,.63,1.77,1,3.81,3.36,3.94,2.89,6.8,5.45,13.33,7.54,19.74-3.26-5.35-5.4-11.75-8-17.76-3.34-1.86-5.34-5-9.22-6.32,0,1.71,2.09,1.46,2.09,3.16.31,3.31-2.87,3.34-5,4.34-.45,4.19-.66,11.63-3.77,14.61-1-.75,1.3-2.16,1.68-3.55.93-3.43-.35-8.51.84-12.24A10.49,10.49,0,0,1,207,290.24Zm9.64-8.69c-4.55-5.67,3.2-8,5.44-11.05-2.57-.33-2.94-2.75-5.44-3.16C214.8,270.1,212.8,280.68,216.67,281.55Zm-23,2.77c1.95-.13,2.33,1.22,3.77,1.58.14-1.58,1.14-2.35,1.67-3.56-1.83-.24-3.1-1-5-1.18C194.36,282.65,193.52,283.05,193.62,284.32Zm20.95,0c2,1.69,5.66,3.88,9.22,2.76C219.12,287.32,219.41,282.9,214.57,284.32Z"/><path class="cls-2" d="M312.12,138.64A92.33,92.33,0,0,1,304.39,115c-2.39-1.15-3.32-2.78-5.28-4.08.6,4.45-3.09,13.78-9,12.29-6.75-1.7-7.77-12-2.16-17.63-5.91,3.36-7.77,12.44-10.79,21.62-1.8,5.46-1.18,11.18-1.94,14.62-1-2-.89-5.31-.48-8.29.94-6.83,4-16.34,5.95-22.35.73-2.22,2.18-4.22,3.77-4.74.22-1,.15-2.87,1.3-3.34-3.28,0-5.78,2.54-9.57.84-4.62,6-9.83,10.14-14.31,16.66,3.64-7.83,9-12.45,14.17-18.08,3.1-1.2,9.64,2,9.48-4-4.49-2-4.8-5.41-5.51-8.66a12.63,12.63,0,0,1-9.27-3.93c1.22-1.23,2.18,1.24,2.9,2a68.88,68.88,0,0,0,7.44.74c1.88,2.29,1.2,5.42,3.46,7.59.58-1.65-1.44-5,.72-8.1-3.39.21-7.07-5.38-5.48-9.55.24.7.08,2.23,1.19,1.07-.36-2.8-3.15-1.18-5.17-1.79-4.95-1.49-9.81-7.63-15.28-6.6,4.61-2.9,8.57,2.47,12.91,4.47s8.36.67,11.92,2.18c2.24-7-.66-12.2-.4-18.51,1.52,5.81,3.66,11.42,1.27,18.51,1.86,1.19,6,3.47,5.39,6.38-.51,1.82-1.6,1.7-2.49,2.27,1,1.22,2.46,2.3,2.86,3.72.19,1.2-.79,2.79-.8,4,2.86-2.31,1.58-5.76,3.7-8.79,1.26,2.56-.48,9.21-3.74,10.55-.32,1.27.44,2.18.43,3.35,3.76-2.53,7-6.92,11.62-6.46,2.49,1.87,4.14.94,6.22,1.44-2.18,1.08-5.09-.27-7.63-.39-3.6,1.47-6.49,5.28-10.07,6.82-.78,1.62,2,2,1.12,3.71,17.33,7.66,13.9,22.19,19.45,33.75Z"/><path class="cls-2" d="M842.3,169.66c.16.62-.32.7-.3,1.21-3.11.94-4.44,3.45-7,4.84-2,5.39-8.52,6.75-12.9,10,1.45,2.86,3.38,8.52.36,10.67.67,1.2,1.86,1.8,2.18,3.41-.44,5.29-7.89,4.35-7.85,10.06,3.72,1.18,9.11.41,13.29,1a8.26,8.26,0,0,1,1.54,5.43c.52,1.39,3.56-.19,3.62,1.73a11.94,11.94,0,0,1-3.92-.52c-.46-1.45-1.07-2.72-1.46-4.25a6.11,6.11,0,0,0-3.93-.52,34,34,0,0,1-1.33,19.89,7.21,7.21,0,0,0,1.8,3.44c-1.28,1.33-1.48-2.23-2.88-2.17-7.65,5.27-15-1.08-14.36-10.88-4.51,5.49-6.74,13-8.24,21.17-1.49-1.47-.3-4.51.31-6.75,1.15-4.25,3.7-7.38,4.2-12.18a30.29,30.29,0,0,0,4.86-8.26c-.9-1.4-1.54,1.31-2.31.16-1.27-2.92,1.18-4.55,2.26-6.49-2.33.45-3.75-.14-4.75-1.25-6.3,0-10.28,2-15.88.71a139.06,139.06,0,0,0,21.1-3.85c-.61-.7-2.15-.32-2.07-1.84-.29-2.59,1.44-3.41,2.38-4.91-4.38-2.54-10.44-3.11-13.34-7.39,1.81-2.14,2.73,2.67,4.5,3.25,4.16-.47,6.44,1.26,9.48,2.11,1.64-.39,2.27-1.69,3.73-2.24-5.91-.86-3.73-11.41-.58-13.82-6.93-4.1-7.47-15.69-14.22-20,6.29,1.4,6.53,8.67,9.5,13.6,2,3.35,5.47,4.72,7.15,7.81,2.49-1,3.42.33,4.42,2.07,3-1.89,5.53-4.21,9.34-5.4C834.53,176.08,836.86,171.49,842.3,169.66Zm-22,45.89a40.22,40.22,0,0,1,5,5.59c-.16-2.37-.33-4.73-.5-7.1C822.67,214,822.28,215.5,820.25,215.55Zm-1.38-19.7c.71,1.72,1.78,3,1.57,5.83a3.54,3.54,0,0,0,2.57-2.16C821,199,821.17,196,818.87,195.85Zm-2.38,16c.53,1.21-.54,1-.66,1.63,2,1.12,3-.08,4.59-1.11C818.77,212.6,818.42,211.3,816.49,211.85Zm-2-28c1,0,1.65-.26,1.46-1.29C815,182.54,814.35,182.84,814.54,183.87Z"/><path class="cls-2" d="M1111.31,359.45a90.72,90.72,0,0,1-10.19-23.35c-2.6-.86-3.73-2.42-5.89-3.48,1,4.5-2,14.63-8.34,13.9-7.22-.83-9.2-11.36-3.81-17.89-5.91,4.27-7,13.89-9.41,23.78-1.4,5.88-.24,11.69-.73,15.34-1.25-1.89-1.4-5.35-1.24-8.48.38-7.17,2.73-17.41,4.27-23.87.56-2.39,1.9-4.65,3.52-5.4.14-1.11-.1-3,1.07-3.63-3.44.42-5.83,3.41-10,2.17-4.31,6.88-9.41,11.81-13.53,19.15,3.12-8.58,8.3-14.07,13.26-20.59,3.13-1.66,10.26.71,9.57-5.43-4.88-1.45-5.5-4.91-6.53-8.18a12.9,12.9,0,0,1-10.07-2.78c1.18-1.43,2.4,1,3.22,1.62a72.8,72.8,0,0,0,7.86-.25c2.18,2.1,1.74,5.43,4.29,7.36.47-1.78-2-4.92,0-8.46-3.54.68-7.89-4.58-6.59-9.09.31.68.27,2.28,1.34.93-.63-2.84-3.41-.79-5.57-1.13-5.33-.87-11-6.54-16.6-4.72,4.58-3.62,9.2,1.37,13.92,2.85s8.82-.46,12.69.61c1.72-7.48-1.78-12.5-2.05-19,2.1,5.79,4.83,11.28,3,18.92,2.05,1,6.61,2.75,6.21,5.84-.37,2-1.53,2-2.41,2.69,1.18,1.11,2.78,2,3.32,3.44.32,1.21-.58,3-.48,4.28,2.8-2.77,1.15-6.15,3.1-9.57,1.55,2.47.32,9.57-3,11.4-.22,1.35.66,2.19.75,3.4,3.72-3.13,6.68-8.1,11.61-8.26,2.78,1.59,4.42.41,6.64.64-2.19,1.41-5.36.41-8,.64-3.64,2-6.33,6.34-9.94,8.42-.68,1.77,2.32,1.82,1.5,3.67,18.83,5.53,16.51,21,23.36,32.16C1111.41,359.19,1111.36,359.32,1111.31,359.45Z"/><path class="cls-3" d="M1106.13,338.13c.61.09.49.52.94.68-.37,2.95,1.32,5,1.54,7.64,3.94,3.59,2.63,9.56,3.8,14.4,3-.2,8.74.2,9.47,3.5,1.31-.13,2.29-.91,3.82-.61,4.46,2.25.77,8.17,5.78,10.17,2.47-2.7,3.86-7.49,6-10.77a8.18,8.18,0,0,1,5.35.64c1.41.06,1.2-3,2.9-2.42a11,11,0,0,1-2,3.11c-1.45-.14-2.79-.08-4.28-.29a5.53,5.53,0,0,0-2,3.1c7,1.18,13.3,4.63,16.89,8.22a7.24,7.24,0,0,0,3.7-.28c.67,1.54-2.52.44-3,1.63,1.67,8.3-6.73,12.23-15,8.17,3.07,5.74,8.78,10.29,15.35,14.46-1.85.73-4.06-1.36-5.79-2.67-3.27-2.48-5-5.73-9-7.87a27.49,27.49,0,0,0-5.35-7c-1.58.26.55,1.76-.75,2-3,0-3.53-2.62-4.82-4.22a4.31,4.31,0,0,1-2.92,3.54c-2.37,5.3-2.17,9.36-5.48,13.58a122.34,122.34,0,0,0,4.74-19.08c-.85.27-1.1,1.7-2.4,1.09-2.38-.69-2.43-2.42-3.39-3.75-3.9,2.77-6.73,7.65-11.59,8.56-1.18-2.29,3.38-1.35,4.58-2.62,1.18-3.66,3.58-4.95,5.48-7.2.3-1.52-.6-2.5-.52-3.92-3,4.64-11.42-.94-12.32-4.45-6.25,4.35-16.6.67-23,4.8,3.63-4.78,10.09-2.39,15.54-3.12,3.71-.5,6.24-2.91,9.59-3.22.06-2.45,1.6-2.75,3.51-3-.5-3.2-1.56-6.15-1.14-9.77C1108.77,346.94,1105.65,343.34,1106.13,338.13ZM1137.82,373a39.6,39.6,0,0,1,6.83-2.25l-6.4-2.11C1137.39,370.41,1138.55,371.28,1137.82,373ZM1120,367.12c1.78,0,3.34-.41,5.71.77a3.13,3.13,0,0,0-.9-2.93C1123.64,366.46,1121.05,365.24,1120,367.12Zm13.09,7.71c1.27,0,.67.81,1.18,1.14,1.74-1.27,1.08-2.55.79-4.25C1134.66,373.19,1133.39,373,1133.13,374.83Zm-25.23-8.34c.43-.84.41-1.48-.57-1.69C1106.91,365.64,1106.92,366.28,1107.9,366.49Z"/><path class="cls-2" d="M33.29,197.82c-.84.89-2,4-4.1,4.09,4.36,4.38,8.94,11.92,4.09,15.47.43,2.93,1.28,5.81,5.72,8.19a8.05,8.05,0,0,1-6.11-7.5c-2.22-.42-5.16-2.41-6.92-3.85-7.47,2.91-10.57,11-15.76,18.53,1.67-7.46,8.21-15.88,14.38-19.3a22.77,22.77,0,0,0-3.92-4.91c-1.38-.76-1.51,1.31-2.54,1.31-1.11-1.3,1.23-1.31,1.35-2.43.33-2-3.42-3.37-4.38-5.16,1.8-4.56,5.8-4.16,7.46-9-1.65-1.34-5.28-.43-7.82-1.16,1.47,1.84-2,2.41-4.12.89,1.79-.26-.49-.71-.34-1.56,3.61-1.52,8.62.11,13.05.44.59-1.74-.15-3.47,2.13-3.82-3.52-5.09-12.32-6.61-17.11-12.71,1.14-3.6,6.62-2.17,10.26-4.3,3-1.79,4.49-5.24,7.67-6.19,3.93-1.18,9.11.62,14.2,3.81,1,2.21.58,4.62.33,7,3.8-2.93,8.15-4.6,11.46-8.64,5.33-.26,9.58-5.38,12.69-9.77-3.73,8.78-14.15,12.12-21.53,18-1.3,7.49-6.21,12.31-11.78,15.74,2.37.64,4.91,1.66,6.16-.21,9.28,2,18.09,4.15,26.55,6.59-7.76-.78-16.23-3.17-24.44-5-3.71,1.56-8.27,1.2-11.63,3.54,2,1.1,2.66-.79,4.65.31,4,1.91,2.58,4.57,2.76,7,4.69,3.1,13.29,8.12,15.33,12.63-1.34.35-1.92-2.48-3.38-3.7-3.57-3-10.1-5.25-13.91-8.66A9.05,9.05,0,0,1,33.29,197.82Zm-5.71-13.64c-8.73.07-7.92-7.89-10.4-11.71-1.59,1.92-4.58.65-6.21,2.46C13.33,178.27,24.77,186.81,27.58,184.18Zm-7.4,20.9c.75-1.7,2.5-1.14,3.58-2.1-1.78-1.14-2.21-2.47-3.37-3.7-1.14,1.37-2.63,1.91-3.71,3.4C18.57,203.38,18.65,204.33,20.18,205.08Zm9.67-17.37c2.89-.54,7.14-2.16,7.48-5.84C35.45,185.9,30.43,182.78,29.85,187.71Z"/><path class="cls-2" d="M619.82,243.25c.6.31.28.78.68,1.13-1.78,3.44-.94,6.42-2,9.73,2.49,5.62-1.71,12.39-2.75,18.62,3.33.76,9.19,3.09,8.41,7.31,1.45.26,2.86-.36,4.34.5,3.68,4.17-3,10.12,1.35,14.16,3.89-2.45,7.63-7.79,11.47-11.05a7.74,7.74,0,0,1,5.38,2.52c1.47.53,2.71-3.3,4.22-2a16.79,16.79,0,0,1-3.54,3.11c-1.48-.63-2.94-1-4.42-1.74a8.25,8.25,0,0,0-3.54,3.11,31.54,31.54,0,0,1,14.07,15.41,7.13,7.13,0,0,0,4.06.87c0,2.08-2.88-.29-4,1-2.13,10.58-12.89,12.59-19.81,5,.56,7.94,4.48,15.29,9.5,22.46-2.32.27-3.68-3-4.9-5.1-2.31-4.07-2.64-8.57-5.89-12.44a32,32,0,0,0-2.38-10.23c-1.79-.2-.24,2.31-1.74,2.18-3.24-1-2.51-4.32-3.12-6.66-1.52,2.39-3.12,3.24-4.76,3.32-5,5.64-6.72,10.6-12.22,14.62a190,190,0,0,0,14-21.5c-1,.05-2,1.69-3.06.53-2.21-1.6-1.44-3.72-1.83-5.63-5.45,2.08-10.76,7.06-16.34,6.57-.17-3.15,4.23-.52,6.09-1.67,3-4,6.14-4.82,9.22-6.91,1-1.74.53-3.22,1.29-4.92-5.41,4.63-11.68-4.84-11-9.37-8.69,3.22-17.94-4.59-26.64-1.67,6.11-4.59,11.84.4,18,1.29,4.18.6,8-1.49,11.7-.77,1.21-2.94,3-2.81,5.12-2.44,1-4,1.24-7.94,3.38-12.16C618.47,254.74,616.85,249.39,619.82,243.25ZM637,295.66a43.66,43.66,0,0,1,8.31-.49l-5.8-4.63C637.79,292.4,638.62,293.82,637,295.66Zm-16.1-12.87c1.89.6,3.73.59,5.7,2.77a4.22,4.22,0,0,0,.42-3.82C625.07,283.16,622.89,280.85,620.93,282.79Zm10.27,13.56c1.34.4.33,1.2.71,1.76,2.45-1,2.35-2.73,2.84-4.87C633.59,294.87,632.32,294.25,631.2,296.35Zm-22.86-18.27c.85-.88,1.13-1.66.19-2.22C607.68,276.73,607.4,277.51,608.34,278.08Z"/></svg>