<svg id="Layer_1" data-name="Layer 1" xmlns="http://www.w3.org/2000/svg" viewBox="0 0 1247.24 878.74"><defs><style>.cls-1{fill:#fff;}.cls-2,.cls-3,.cls-7{fill:#231f20;stroke:#231f20;stroke-miterlimit:10;}.cls-3{font-size:76.94px;stroke-width:5px;font-family:Univers-Black, Univers Black;font-weight:800;letter-spacing:0.22em;}.cls-4{letter-spacing:0.22em;}.cls-5{letter-spacing:0.24em;}.cls-6{letter-spacing:0.22em;}.cls-7{fill-rule:evenodd;}</style></defs><title>ANTS na belom (1)</title><rect class="cls-1" x="0.88" y="6.64" width="1247.24" height="878.74"/><path class="cls-2" d="M186.26,513.45H76.09l86.37-248.67H319.39l86.38,248.67h-110l-14.33-42H200.6Zm34.38-100.71h40.74L241,351Z"/><text class="cls-3" transform="translate(422.95 605.77) scale(1.3 1)">t<tspan class="cls-4" x="42.01" y="0">-shi</tspan><tspan class="cls-5" x="224.52" y="0">r</tspan><tspan class="cls-6" x="268.45" y="0">ts</tspan></text><path class="cls-2" d="M667.37,515.41H583.92L530.47,437v76.42h-110V264.78h78.71l58,84.09V264.78H667.37Z"/><path class="cls-2" d="M697.35,374.94V264.78h221V374.94H862.92V513.45H752.76V374.94Z"/><path class="cls-2" d="M1167.61,277.49l-27.38,78.39q-26.89-36.35-61.75-36.34-19.43,0-19.4,14.66c0,3,2,6.14,6.11,9.28s14.75,8.11,32,14.84q28.5,11.24,43.91,20.44t23,23.56q7.66,14.34,7.67,33.41,0,39.91-30.31,60.86t-89.16,20.94q-66,0-113.74-18.75l26.9-83.1a92.05,92.05,0,0,0,29.09,29Q1012,455.45,1028,455.45a20.94,20.94,0,0,0,13.11-4.07c3.54-2.72,5.3-6.05,5.3-10,0-3.68-1.7-7.22-5.13-10.58s-12.47-8-27.14-14a255.23,255.23,0,0,1-32.9-15.56,70.56,70.56,0,0,1-22.67-21.6q-9.62-14-9.61-35.36,0-41.39,30.15-62.41t89-21Q1121.81,260.87,1167.61,277.49Z"/><path class="cls-7" d="M161.76,287.91a102.66,102.66,0,0,1-19.29,19.61c.08,2.92-1.05,4.67-1.32,7.24,4.06-2.85,15.11-4,16.66,2.56,1.78,7.47-7.87,13.73-16.22,11.08,6.32,4.09,16.18,1.28,26.75-.43,6.28-1,11.58-4.54,15.34-5.54-1.41,2-4.76,3.58-7.89,4.69-7.19,2.55-18.09,4.42-25,5.54-2.56.42-5.26,0-6.58-1.28-1.14.32-2.9,1.32-3.95.43,1.65,3.23,5.44,4.37,5.7,8.95,8.31,1.44,15,4.47,23.68,5.54-9.55.42-16.81-2.45-25-4.69-2.76-2.42-3-10.43-8.77-7.24.32,5.42-2.86,7.44-5.7,9.8a13.92,13.92,0,0,1,.88,11.08c-1.83-.58.1-2.77.44-3.84a75.2,75.2,0,0,0-3.07-7.67c1.29-3,4.71-3.94,5.7-7.24-1.92.27-4.14,3.93-8.33,3.4,1.93,3.22-1.68,9.67-6.58,10.23.56-.59,2.14-1.2.44-1.7-2.57,1.78.44,3.68.88,6,1.06,5.61-2.5,13.49,1.31,18.32-5.2-3-2-9.65-2.19-14.91s-3.61-8.53-4-12.79c-8,1.35-11.65,6.86-18,9.8,4.93-4.44,9.35-9.38,17.53-10.65.23-2.43.33-7.66,3.51-8.53,2.06-.43,2.5.71,3.51,1.28.67-1.62,1-3.57,2.19-4.69,1.08-.8,3.14-.63,4.38-1.27-3.72-1.63-6.46,1.38-10.52.85,1.88-2.54,9.29-4.22,12.28-1.71,1.41-.33,1.91-1.54,3.07-2.13-4.41-2.39-10.35-3.29-12.28-8.09.56-3.39-1.19-4.53-1.75-6.82,2.17,1.58,2.32,5.12,3.5,7.67,3.29,2.77,8.5,3.67,11.84,6.39,2-.05,1-3,3.07-3-1.31-20.88,14.72-24.91,23.24-36.23Z"/><path class="cls-7" d="M408,245.93c7-4.09,14.94-3.59,21.88-8.09-1.29-4-3.53-8.51-9.5-9.46,5.2-.18,9.41,3.72,9.83,8,2.84-1.57,9.95-5.24,10.35,1,1.47-.6,2.8-1.88,4.32-2.21,4.08,1.4,3.38,6.3,7.36,6.66.62-3.25-.86-7.26,1.76-10.26,2.85,2-.69,6.86.93,9.44a15.14,15.14,0,0,0-.65,4.68c1.47.5,2.15-3,3.73-2,.78,1-.64,3-.42,4.25,4.52-3.33,7.77-13,12.64-14.61,2.3,4.26,4.26,7.5,5.78,13.1,1.76,6.46-1.2,15.85,7.26,18.91-.76.95-2.19-1.41-2.82.2-5.34-3.68-3.53-11.63-5.69-15.85-.59-1.16-.5-3.46-1-5-1.13-3.55-2.77-6.13-3.28-10.11a62.47,62.47,0,0,0-6.12,9.09c8.08,3.2,10.54,11.39,4.34,21.85-3.13,2-8.44-1-10-4.14-.22,6-2.1,15.59,4,20-3.35,1.47-4.45-4.33-4.77-6.41-1.08-7.23-.05-17.5-3.07-23.43-2.07.37-.21,3.66-1.49,3.69-2.22.63-2.44-2-2.85-3.17a38.73,38.73,0,0,1-2.91,3c-2.5-.36-2.26-1.93-4.14-3.3-2.06,3.12-1.41,9.18-2.69,12-.19,2.24.16,12.54-4.67,13.21,6.85-7.88,1.87-16.05,5.83-24.9-2.17-1.66-4.48-3.26-6.39-5-3.79,6.48-6.62,17.61-13.2,18.25.17-1.35,3.37-1.11,4.56-2.65,1.86-5.44,4.69-14.47,10.14-17.6l4.26,2.23c.34-2.41-2.62-3.39-3-5.49-3.71,5.8-9.21,2.65-12.95,8.31-1-.58-.79-1.7-.85-2.69,2.89-1.46,3.05-4.28,3.33-7.2-2.17-.26-3.91,1.64-5.72,3.15-5.38.08-10.57,1.11-15.22,4.88C407.22,247.4,407.61,246.67,408,245.93Z"/><path class="cls-7" d="M950.6,292c2.84-7.18,9.38-11.79,11.89-19.19-3.61-1.92-8.31-3.6-13.61-.51,4-3.38,9.81-3.35,12.89-.72,1.21-2.84,4.39-9.79,8.74-5.82.76-1.32,1-3,2-4.2,4.11-1.6,6.75,2.18,10.1-.06-1.63-2.6-5.4-4.41-5.29-8.1,3.56-.38,3.92,5.11,6.86,5.86a13.32,13.32,0,0,0,2.55,3.6c1.47-.58-.27-3.39,1.65-3.66,1.28.2,1.45,2.44,2.44,3.16,1.37-5.1-2.39-13.74.4-17.86,4.57,1.47,8.22,2.45,13.06,5.32,5.58,3.3,9.37,11.56,18,8.36,0,1.12-2.63.4-2.08,1.89-6.58.83-10.33-5.72-14.78-7.25-1.22-.42-2.64-2-4-2.78-3.2-1.71-6.16-2.45-9.15-4.85a52.11,52.11,0,0,0,1.11,10c8.42-2.88,15.68,1.18,17.64,12.18-1.16,3.32-7.3,4.56-10.56,3.44,3.71,4.21,8.51,11.94,16.12,11.14-1.67,3.09-6.31-.17-7.91-1.4-5.55-4.24-11.44-11.89-17.66-14-1.38,1.55,2.22,2.63,1.24,3.45-1.34,1.82-3.19.2-4.31-.38a33,33,0,0,1-.36,3.82c-2.19,1.33-3,.11-5.39.35.41,3.41,4.87,7.13,5.71,9.87,1.31,1.64,8.29,8.45,4.94,11.92.24-9.66-9-12.11-11.64-20.62-2.78.23-5.64.57-8.29.56,1.24,6.79,6.27,16.14,1.53,20.68-.74-1,1.92-2.85,1.85-4.64-2.09-4.88-5.74-12.81-3.51-18.34l4.79-1.14c-1.3-1.86-4.26-.68-5.92-1.87.86,6.27-5.5,7.56-4.75,13.75-1.18.25-1.72-.66-2.41-1.3,1.31-2.8-.4-4.83-2.08-7-1.87,1.17-2,3.56-2.44,5.72-4.16,3.41-7.56,7.36-8.75,12.83C951,293.48,950.78,292.74,950.6,292Z"/><path class="cls-7" d="M979.82,404.89c.58-.12.62.39,1.09.41.65,3.38,2.86,5,4,7.86,4.77,2.52,5.6,9.57,8.29,14.48,2.69-1.33,8-3,9.73.41,1.13-.63,1.76-1.84,3.24-2.07,4.78.86,3.46,8.73,8.65,9.1,1.32-3.87,1-9.66,1.8-14.06a6.63,6.63,0,0,1,5-1.24c1.29-.45,0-3.81,1.8-3.73a15,15,0,0,1-.72,4.14c-1.35.38-2.55.94-4,1.24a7.49,7.49,0,0,0-.72,4.14,27.13,27.13,0,0,1,18,2.89,6.16,6.16,0,0,0,3.25-1.65c1.13,1.46-2.13,1.4-2.17,2.89,4.32,8.55-1.93,15.93-10.81,14.48,4.71,5.22,11.4,8.15,18.74,10.34-1.43,1.48-4.12,0-6.12-.82-3.8-1.54-6.48-4.49-10.82-5.38a28.09,28.09,0,0,0-7.2-5.79c-1.34.86,1.09,1.74,0,2.48-2.74,1.14-4.07-1.6-5.77-2.89.27,2.51-.37,4-1.44,5-.35,6.71,1.2,11.1-.36,17a174.93,174.93,0,0,0-2.16-22.75c-.68.6-.43,2.27-1.81,2.07-2.38.11-3-1.78-4.32-2.9-2.59,4.48-3.49,10.89-7.57,13.65-1.83-2.09,2.6-2.71,3.25-4.55-.17-4.46,1.56-6.76,2.52-9.93-.25-1.78-1.39-2.54-1.8-4.13-1.16,6.22-10.62,3.12-12.62-.42-4.17,7.07-14.75,6.79-19.1,13.65,1.67-6.59,8.31-6.31,13-9.1,3.18-1.9,4.64-5.47,7.56-7-.77-2.72.52-3.62,2.17-4.55-1.53-3.34-3.49-6.2-4.33-10.34C985.18,413.63,981.15,410.81,979.82,404.89Zm40.37,26.88a39,39,0,0,1,5.4-5h-6.48C1018.93,429.08,1020.27,429.61,1020.19,431.77Zm-18,0c1.61-.62,2.87-1.66,5.4-1.24a3.75,3.75,0,0,0-1.8-2.89C1005.2,429.73,1002.44,429.33,1002.17,431.77Zm14.41,3.73c1.13-.48.88.65,1.44.82,1.15-2,.12-3.2-.72-5C1017.41,433.13,1016.2,433.41,1016.58,435.5Zm-25.59,0c.11-1.08-.13-1.78-1.07-1.66C989.81,434.92,990.05,435.62,991,435.5Z"/><path class="cls-7" d="M267.47,503.5c-1.25-.22-4.65.15-5.87-1.19-1.8,4.44-6.39,10.17-12.15,8.29-2.48,1.35-4.69,2.95-4.61,6.71-1.24-3,1.37-5.81,3.77-6.71-.74-1.6-.42-4.25,0-5.92-6.51-3.82-15.57-2.9-25.14-3.55,7.72-1.63,18.84-.42,25.14,2.37a14.69,14.69,0,0,0,2.52-4.35c0-1.17-2-.5-2.52-1.18.64-1.19,1.84.32,2.94,0,2-.5,1.35-3.46,2.51-4.74,5.12-.48,6.8,2.28,12.16,1.58.38-1.56-2.32-3.6-2.94-5.53-.95,1.64-3.23-.4-2.93-2.36,1.16,1.07.39-.58,1.25-.79,3.26,1.8,4.33,5.66,6.29,8.68,1.91-.24,3.12-1.36,4.61,0,2.89-4.15-.23-10.44,2.94-15.79,3.89-.56,5.39,3.54,9.22,5.13,3.21,1.34,7.13,1,9.64,2.77,3.09,2.13,4.1,6.17,3.77,10.65-1.5,1.49-4,2.06-6.29,2.77,4.64,1.42,8.42,3.65,13.83,4.34,3,3.39,9.87,4.3,15.51,4.74-10,.75-18.42-4.84-27.66-7.5-7.56,1.87-14.52.41-20.54-2,.63,1.78,1,3.81,3.35,3.95,2.9,6.8,5.46,13.32,7.55,19.74-3.26-5.35-5.4-11.75-8-17.77-3.33-1.86-5.34-5-9.22-6.31,0,1.7,2.09,1.45,2.1,3.16.3,3.3-2.88,3.34-5,4.34-.45,4.19-.67,11.63-3.77,14.6-1-.74,1.3-2.16,1.67-3.55.94-3.42-.34-8.51.84-12.24A10.48,10.48,0,0,1,267.47,503.5Zm9.64-8.69c-4.54-5.67,3.21-8,5.45-11.05-2.58-.34-2.94-2.76-5.45-3.16C275.25,483.36,273.25,493.93,277.11,494.81Zm-23.05,2.76c1.95-.12,2.33,1.23,3.77,1.58.14-1.58,1.14-2.34,1.68-3.55-1.84-.24-3.1-1-5-1.18C254.8,495.9,254,496.3,254.06,497.57Zm21,0c2,1.69,5.65,3.88,9.22,2.77C279.56,500.58,279.86,496.16,275,497.57Z"/><path class="cls-7" d="M372.56,351.9a93.24,93.24,0,0,1-7.73-23.65c-2.38-1.15-3.32-2.79-5.27-4.08.6,4.44-3.09,13.78-9,12.29-6.75-1.7-7.76-12-2.15-17.63-5.92,3.35-7.77,12.43-10.8,21.62-1.79,5.46-1.17,11.18-1.93,14.61-1-2-.89-5.31-.48-8.28.94-6.83,4-16.35,5.95-22.35.73-2.22,2.17-4.22,3.76-4.74.22-1.05.15-2.88,1.3-3.34-3.28,0-5.78,2.53-9.57.83-4.61,6.05-9.83,10.15-14.31,16.67,3.64-7.84,9-12.46,14.18-18.08,3.09-1.21,9.63,2,9.47-4-4.49-2-4.79-5.4-5.5-8.66a12.64,12.64,0,0,1-9.28-3.92c1.23-1.23,2.19,1.23,2.9,1.95a64.55,64.55,0,0,0,7.45.74c1.88,2.29,1.2,5.43,3.45,7.6.58-1.65-1.44-5,.73-8.1-3.39.2-7.07-5.38-5.49-9.55.25.7.08,2.23,1.19,1.07-.36-2.81-3.15-1.18-5.16-1.79-5-1.5-9.81-7.64-15.28-6.6,4.61-2.9,8.57,2.47,12.9,4.47s8.36.67,11.92,2.17c2.24-6.95-.66-12.2-.39-18.5,1.51,5.81,3.65,11.41,1.26,18.51,1.86,1.19,6,3.46,5.4,6.37-.51,1.83-1.61,1.71-2.49,2.28,1,1.21,2.45,2.29,2.85,3.72.2,1.19-.79,2.78-.79,4,2.86-2.31,1.58-5.76,3.69-8.79,1.27,2.56-.47,9.21-3.74,10.56-.31,1.26.45,2.18.44,3.35,3.76-2.54,6.95-6.93,11.62-6.47,2.49,1.87,4.13.94,6.21,1.45-2.18,1.07-5.09-.28-7.63-.39-3.6,1.47-6.49,5.28-10.07,6.82-.78,1.61,2.05,2,1.12,3.7,17.34,7.67,13.9,22.2,19.46,33.76Z"/><path class="cls-7" d="M902.75,382.91c.15.63-.32.7-.3,1.21-3.11.94-4.45,3.46-7.05,4.85-2,5.38-8.52,6.75-12.9,10,1.44,2.85,3.38,8.51.35,10.67.68,1.2,1.86,1.8,2.19,3.41-.44,5.28-7.89,4.35-7.85,10.05,3.71,1.19,9.1.41,13.29,1.05A8.29,8.29,0,0,1,892,429.6c.52,1.38,3.56-.19,3.62,1.73a12.52,12.52,0,0,1-3.93-.52c-.45-1.45-1.06-2.73-1.46-4.25a6.07,6.07,0,0,0-3.92-.52A34.12,34.12,0,0,1,885,445.93a7.25,7.25,0,0,0,1.79,3.44c-1.27,1.33-1.47-2.23-2.87-2.18-7.65,5.28-15-1.07-14.36-10.87-4.51,5.49-6.75,13-8.24,21.17-1.49-1.47-.3-4.51.31-6.76,1.15-4.25,3.7-7.37,4.2-12.17a30.54,30.54,0,0,0,4.86-8.26c-.91-1.4-1.55,1.31-2.32.16-1.27-2.92,1.19-4.56,2.27-6.5-2.33.46-3.76-.14-4.75-1.25-6.3.06-10.29,2-15.88.72a140.54,140.54,0,0,0,21.1-3.85c-.62-.7-2.15-.32-2.07-1.84-.29-2.6,1.43-3.41,2.37-4.92-4.37-2.54-10.44-3.11-13.33-7.38,1.81-2.15,2.73,2.66,4.49,3.25,4.16-.47,6.45,1.26,9.48,2.11,1.65-.39,2.27-1.69,3.73-2.24-5.91-.87-3.73-11.41-.57-13.83-6.93-4.1-7.47-15.69-14.23-20,6.3,1.39,6.54,8.67,9.5,13.59,2,3.36,5.48,4.73,7.16,7.82,2.48-1,3.42.33,4.41,2.07,3-1.89,5.54-4.22,9.34-5.41C895,389.33,897.31,384.75,902.75,382.91Zm-22.06,45.9a40.35,40.35,0,0,1,5.06,5.59c-.17-2.37-.33-4.74-.5-7.1C883.12,427.26,882.73,428.76,880.69,428.81Zm-1.37-19.71c.71,1.73,1.78,3,1.57,5.83a3.54,3.54,0,0,0,2.57-2.16C881.45,412.28,881.62,409.24,879.32,409.1Zm-2.38,16c.53,1.21-.54,1-.67,1.63,2,1.12,3-.08,4.59-1.11C879.21,425.85,878.86,424.55,876.94,425.11Zm-2-28c1,0,1.65-.26,1.47-1.29C875.43,395.8,874.79,396.1,875,397.13Z"/><path class="cls-7" d="M1171.75,572.7a91.49,91.49,0,0,1-10.19-23.34c-2.59-.87-3.72-2.42-5.89-3.49,1,4.5-2,14.64-8.34,13.91-7.22-.83-9.19-11.37-3.81-17.89-5.9,4.26-7,13.89-9.4,23.78-1.4,5.87-.24,11.69-.73,15.34-1.26-1.89-1.41-5.36-1.24-8.48.38-7.18,2.72-17.41,4.26-23.87.57-2.4,1.91-4.66,3.53-5.41.13-1.11-.1-3,1.06-3.63-3.44.42-5.83,3.41-10,2.17-4.3,6.88-9.41,11.82-13.52,19.16,3.12-8.58,8.29-14.07,13.25-20.59,3.14-1.67,10.27.71,9.58-5.43-4.88-1.46-5.5-4.92-6.54-8.18a12.89,12.89,0,0,1-10.06-2.78c1.17-1.44,2.4,1,3.21,1.62a70.39,70.39,0,0,0,7.87-.26c2.17,2.11,1.74,5.44,4.29,7.37.46-1.78-2-4.92,0-8.46-3.53.68-7.88-4.58-6.59-9.1.32.68.28,2.29,1.34.94-.62-2.84-3.4-.79-5.57-1.14-5.32-.87-10.95-6.53-16.59-4.72,4.58-3.62,9.2,1.37,13.92,2.85s8.81-.46,12.68.61c1.73-7.47-1.77-12.5-2-19,2.1,5.79,4.83,11.27,3,18.92,2.06,1,6.61,2.75,6.22,5.84-.37,2-1.53,2-2.41,2.68,1.18,1.12,2.77,2,3.32,3.45.31,1.21-.59,3-.48,4.28,2.79-2.77,1.15-6.15,3.1-9.57,1.55,2.47.31,9.56-3,11.4-.22,1.35.66,2.19.75,3.39,3.72-3.12,6.68-8.09,11.61-8.25,2.77,1.58,4.41.4,6.64.64-2.19,1.41-5.36.41-8,.64-3.64,2-6.33,6.33-10,8.41-.68,1.77,2.33,1.83,1.5,3.67,18.84,5.54,16.52,21,23.36,32.17C1171.86,572.44,1171.81,572.57,1171.75,572.7Z"/><path class="cls-7" d="M1166.58,551.38c.61.1.49.52.94.69-.37,2.94,1.31,5,1.53,7.64,4,3.59,2.63,9.55,3.8,14.39,3.06-.19,8.75.21,9.47,3.51,1.31-.14,2.29-.92,3.83-.62,4.46,2.26.77,8.18,5.78,10.18,2.46-2.7,3.86-7.5,6-10.78a8.19,8.19,0,0,1,5.35.65c1.41.06,1.19-3.06,2.9-2.42a11.6,11.6,0,0,1-2,3.1c-1.45-.13-2.8-.07-4.29-.29a5.71,5.71,0,0,0-2,3.11c7,1.18,13.31,4.62,16.9,8.21a7.24,7.24,0,0,0,3.7-.28c.67,1.55-2.52.44-3,1.63,1.67,8.31-6.72,12.24-15,8.17,3.07,5.75,8.78,10.3,15.36,14.46-1.86.73-4.06-1.35-5.79-2.66-3.28-2.48-5-5.74-9-7.87a27.58,27.58,0,0,0-5.36-7c-1.57.27.55,1.77-.75,2-3,0-3.53-2.62-4.81-4.22a4.34,4.34,0,0,1-2.92,3.54c-2.38,5.3-2.17,9.35-5.48,13.58A123.75,123.75,0,0,0,1186.5,591c-.85.27-1.11,1.7-2.4,1.08-2.39-.68-2.44-2.42-3.39-3.74-3.91,2.77-6.74,7.65-11.59,8.55-1.18-2.29,3.38-1.34,4.57-2.62,1.19-3.65,3.58-4.95,5.49-7.19.29-1.52-.6-2.5-.53-3.93-3,4.65-11.41-.94-12.31-4.44-6.26,4.34-16.6.66-23,4.79,3.64-4.78,10.1-2.39,15.55-3.12,3.71-.49,6.24-2.9,9.59-3.21,0-2.45,1.6-2.75,3.51-3-.5-3.2-1.57-6.14-1.14-9.76C1169.21,560.19,1166.09,556.6,1166.58,551.38Zm31.68,34.87a40.75,40.75,0,0,1,6.83-2.24l-6.4-2.12C1197.83,583.67,1199,584.53,1198.26,586.25Zm-17.77-5.87c1.78,0,3.33-.41,5.71.76a3.12,3.12,0,0,0-.91-2.93C1184.09,579.72,1181.5,578.5,1180.49,580.38Zm13.09,7.71c1.26,0,.67.81,1.17,1.13,1.75-1.26,1.09-2.55.79-4.24C1195.11,586.44,1193.84,586.27,1193.58,588.09Zm-25.24-8.34c.43-.85.41-1.48-.56-1.69C1167.35,578.9,1167.37,579.54,1168.34,579.75Z"/><path class="cls-7" d="M93.73,411.08c-.83.89-2,3.95-4.09,4.09,4.36,4.38,8.94,11.92,4.08,15.46.43,2.94,1.28,5.81,5.72,8.19a8,8,0,0,1-6.1-7.49c-2.22-.43-5.16-2.42-6.92-3.85-7.48,2.91-10.57,11-15.76,18.53,1.67-7.46,8.21-15.89,14.37-19.3a22.47,22.47,0,0,0-3.91-4.91c-1.38-.76-1.51,1.31-2.55,1.31-1.1-1.3,1.23-1.31,1.36-2.43.32-2-3.43-3.38-4.38-5.17,1.8-4.55,5.8-4.15,7.45-9-1.64-1.34-5.28-.43-7.81-1.17,1.46,1.85-2,2.41-4.13.89,1.8-.26-.49-.7-.34-1.55,3.61-1.52,8.62.1,13,.44.6-1.75-.15-3.47,2.13-3.82-3.52-5.1-12.31-6.61-17.1-12.71,1.13-3.6,6.62-2.17,10.25-4.3,3-1.79,4.5-5.24,7.68-6.2,3.92-1.17,9.1.62,14.2,3.81,1,2.21.57,4.63.33,7,3.8-2.92,8.15-4.6,11.45-8.64,5.33-.25,9.58-5.37,12.7-9.77-3.73,8.78-14.16,12.13-21.53,18.05-1.31,7.48-6.21,12.31-11.78,15.74,2.36.63,4.9,1.66,6.15-.21,9.28,2,18.09,4.14,26.56,6.59-7.76-.79-16.23-3.17-24.44-5-3.71,1.55-8.27,1.19-11.64,3.53,2,1.1,2.66-.79,4.66.32,4,1.9,2.58,4.56,2.76,7,4.68,3.11,13.28,8.13,15.33,12.63-1.34.36-1.93-2.48-3.38-3.7-3.57-3-10.11-5.25-13.92-8.66A9.09,9.09,0,0,1,93.73,411.08ZM88,397.44c-8.73.07-7.92-7.9-10.41-11.71-1.58,1.91-4.58.64-6.2,2.46C73.78,391.52,85.22,400.07,88,397.44Zm-7.41,20.9c.76-1.7,2.51-1.14,3.59-2.1-1.78-1.14-2.22-2.48-3.38-3.7-1.13,1.36-2.63,1.9-3.71,3.39C79,416.64,79.09,417.59,80.62,418.34ZM90.29,401c2.89-.55,7.15-2.16,7.49-5.85C95.9,399.16,90.87,396,90.29,401Z"/><path class="cls-7" d="M680.27,456.5c.6.32.27.79.67,1.14-1.78,3.43-.94,6.42-2,9.73,2.5,5.61-1.71,12.39-2.74,18.61,3.33.76,9.19,3.09,8.4,7.32,1.45.25,2.86-.36,4.35.5,3.67,4.16-3,10.12,1.35,14.16,3.88-2.46,7.62-7.8,11.47-11a7.7,7.7,0,0,1,5.37,2.51c1.47.53,2.72-3.3,4.23-2a16.65,16.65,0,0,1-3.55,3.12c-1.47-.64-2.93-1-4.41-1.75a8.31,8.31,0,0,0-3.55,3.12A31.5,31.5,0,0,1,714,517.34c1.37.57,2.74,1.15,4.06.86,0,2.09-2.88-.28-4,1-2.13,10.57-12.9,12.59-19.81,5,.55,7.93,4.47,15.29,9.49,22.45-2.31.28-3.67-3-4.89-5.1-2.31-4.06-2.64-8.56-5.89-12.44a32,32,0,0,0-2.38-10.22c-1.8-.2-.25,2.31-1.74,2.17-3.24-1-2.51-4.31-3.12-6.66-1.53,2.4-3.13,3.24-4.77,3.33-5,5.63-6.71,10.59-12.21,14.62a191.33,191.33,0,0,0,14-21.5c-1,.05-2,1.69-3.06.52-2.21-1.6-1.45-3.71-1.84-5.62-5.45,2.07-10.75,7-16.33,6.57-.17-3.15,4.22-.53,6.09-1.68,3-4,6.13-4.81,9.21-6.91,1-1.74.54-3.22,1.29-4.91-5.4,4.63-11.67-4.85-11-9.37-8.68,3.22-17.94-4.59-26.63-1.67,6.1-4.59,11.84.4,18,1.28,4.17.61,8-1.48,11.69-.76,1.22-2.95,3-2.81,5.12-2.45,1-4,1.24-7.93,3.39-12.16C678.91,468,677.29,462.65,680.27,456.5Zm17.21,52.42a43.62,43.62,0,0,1,8.31-.5l-5.8-4.63C698.24,505.66,699.07,507.08,697.48,508.92Zm-16.1-12.87c1.88.6,3.73.58,5.7,2.77a4.27,4.27,0,0,0,.42-3.83C685.51,496.42,683.33,494.1,681.38,496.05Zm10.27,13.56c1.34.39.32,1.19.7,1.75,2.45-1,2.36-2.73,2.84-4.87C694,508.12,692.77,507.5,691.65,509.61Zm-22.87-18.28c.85-.87,1.13-1.65.2-2.22C668.13,490,667.85,490.77,668.78,491.33Z"/></svg>